<?xml version="1.0" standalone="no"?>
<svg xmlns="http://www.w3.org/2000/svg" viewBox="0 0 359.8 29" width="359.8" height="29"><path fill="#0466b2" fill-rule="nonzero" d="M2.23 15.91L2.23 15.91L2.23 1.75L0.29 1.49Q0.14 1.06 0.29 0.62L0.29 0.62L3.58 0.70L13.27 0.70L13.30 6.26Q12.77 6.36 12.41 6.26L12.41 6.26L11.28 1.92L4.80 1.92L4.80 9.12L8.64 9.05L9.19 6.70Q9.55 6.60 10.08 6.70L10.08 6.70Q9.98 8.04 9.98 9.79L9.98 9.79Q9.98 11.40 10.06 12.91L10.06 12.91Q9.62 13.06 9.19 12.91L9.19 12.91L8.66 10.42L4.80 10.34L4.80 18.58L12 18.58L13.13 14.23Q13.49 14.14 14.02 14.23L14.02 14.23L13.99 19.80L3.58 19.80L0.14 19.87Q0 19.44 0.14 19.01L0.14 19.01L2.14 18.74Q2.23 17.52 2.23 15.91ZM20.66 19.22L20.66 19.22Q21.96 19.22 22.58 18.62Q23.21 18.02 23.21 17.23L23.21 17.23Q23.21 16.78 23.06 16.39Q22.92 16.01 22.60 15.65Q22.27 15.29 21.74 14.94Q21.22 14.59 20.42 14.18L20.42 14.18Q19.44 13.68 18.73 13.22Q18.02 12.77 17.57 12.26Q17.11 11.76 16.88 11.18Q16.66 10.61 16.66 9.89L16.66 9.89Q16.66 9.02 16.97 8.39Q17.28 7.75 17.84 7.33Q18.41 6.91 19.18 6.71Q19.94 6.50 20.88 6.50L20.88 6.50Q22.75 6.50 24.53 7.42L24.53 7.42L24.53 10.49L23.40 10.49L22.87 7.90Q21.82 7.39 20.64 7.39L20.64 7.39Q18.67 7.39 18.67 9L18.67 9Q18.67 9.86 19.32 10.58Q19.97 11.30 21.41 12.02L21.41 12.02Q22.39 12.53 23.14 12.98Q23.88 13.44 24.37 13.94Q24.86 14.45 25.12 15.04Q25.37 15.62 25.37 16.37L25.37 16.37Q25.37 17.21 25.01 17.93Q24.65 18.65 24 19.16Q23.35 19.68 22.44 19.98Q21.53 20.28 20.42 20.28L20.42 20.28Q18.29 20.28 16.42 19.37L16.42 19.37L16.42 16.30L17.54 16.30L18.07 18.67Q19.30 19.22 20.66 19.22ZM30.94 4.10L30.94 4.10L30.94 7.54L34.32 7.54Q34.37 7.82 34.37 7.97L34.37 7.97Q34.37 8.18 34.32 8.47L34.32 8.47L30.94 8.98L30.94 15.58Q30.94 17.35 31.26 18.08Q31.58 18.82 32.28 18.82L32.28 18.82Q32.90 18.82 34.22 18.31L34.22 18.31Q34.46 18.53 34.56 19.13L34.56 19.13Q33.84 19.56 33.47 19.76Q33.10 19.97 32.53 20.12Q31.97 20.28 31.34 20.28L31.34 20.28Q30.14 20.28 29.39 19.36Q28.63 18.43 28.63 16.54L28.63 16.54L28.63 8.69L26.95 8.47Q26.90 8.23 26.90 8.06L26.90 8.06Q26.90 7.87 26.95 7.54L26.95 7.54Q27.62 7.42 28.12 7.12Q28.61 6.82 28.94 6.28Q29.28 5.74 29.46 5.32Q29.64 4.90 29.90 4.10L29.90 4.10Q30.12 4.03 30.43 4.03L30.43 4.03Q30.72 4.03 30.94 4.10ZM47.30 6.98L47.30 6.98L47.30 16.39Q47.30 18 47.38 18.65L47.38 18.65L49.27 18.89Q49.34 19.27 49.27 19.80L49.27 19.80Q47.52 19.87 45.62 20.14L45.62 20.14Q45.46 19.97 45.38 19.68L45.38 19.68L45.26 17.54Q44.26 18.84 43.19 19.56Q42.12 20.28 40.68 20.28L40.68 20.28Q39.22 20.28 38.22 19.54Q37.22 18.79 37.22 16.99L37.22 16.99L37.22 11.66Q37.22 8.93 37.15 8.16L37.15 8.16L35.26 7.92Q35.16 7.56 35.26 7.01L35.26 7.01Q36.91 6.89 39.38 6.50L39.38 6.50Q39.60 6.74 39.62 6.98L39.62 6.98Q39.50 7.61 39.50 15.79L39.50 15.79Q39.50 17.47 39.90 18.18Q40.30 18.89 41.38 18.89L41.38 18.89Q43.39 18.89 45.02 16.49L45.02 16.49L45.02 11.64Q45.02 8.93 44.95 8.16L44.95 8.16L43.06 7.92Q42.96 7.56 43.06 7.01L43.06 7.01Q44.50 6.91 47.06 6.50L47.06 6.50Q47.28 6.74 47.30 6.98ZM62.30 4.58L62.30 16.39Q62.30 18 62.38 18.65L62.38 18.65L64.27 18.89Q64.34 19.27 64.27 19.80L64.27 19.80Q62.52 19.87 60.62 20.14L60.62 20.14Q60.46 19.97 60.38 19.68L60.38 19.68L60.26 18.14Q59.42 19.13 58.18 19.72Q56.93 20.30 55.56 20.30L55.56 20.30Q53.47 20.30 52.10 18.56Q50.74 16.82 50.74 13.92L50.74 13.92Q50.74 10.56 52.52 8.53Q54.31 6.50 56.81 6.50L56.81 6.50Q58.78 6.50 60.02 7.44L60.02 7.44L60.02 4.22Q60.02 2.64 59.95 1.87L59.95 1.87L58.06 1.63Q57.96 1.27 58.06 0.72L58.06 0.72Q59.71 0.60 62.18 0.22L62.18 0.22Q62.40 0.46 62.42 0.70L62.42 0.70Q62.30 1.32 62.30 4.58L62.30 4.58ZM56.62 7.80L56.62 7.80Q55.06 7.80 54.12 9.44Q53.18 11.09 53.18 13.99L53.18 13.99Q53.18 16.37 54.06 17.62Q54.94 18.86 56.38 18.86L56.38 18.86Q57.24 18.86 58.27 18.32Q59.30 17.78 60.02 16.82L60.02 16.82L60.02 9.14Q58.85 7.80 56.62 7.80ZM69.67 10.87L69.67 10.87L69.67 18.58L71.62 18.94Q71.64 19.06 71.65 19.15Q71.66 19.25 71.66 19.37L71.66 19.37Q71.66 19.49 71.65 19.62Q71.64 19.75 71.62 19.90L71.62 19.90Q70.10 19.82 68.52 19.82L68.52 19.82Q67.97 19.82 67.19 19.84Q66.41 19.85 65.40 19.87L65.40 19.87Q65.33 19.66 65.33 19.42L65.33 19.42Q65.33 19.20 65.40 18.94L65.40 18.94L67.30 18.67Q67.34 18 67.37 17.24Q67.39 16.49 67.39 15.62L67.39 15.62L67.39 10.51Q67.39 8.93 67.32 8.16L67.32 8.16L65.42 7.92Q65.38 7.80 65.38 7.51L65.38 7.51Q65.38 7.39 65.38 7.27Q65.38 7.15 65.42 7.01L65.42 7.01Q67.06 6.91 69.55 6.50L69.55 6.50Q69.77 6.74 69.79 6.98L69.79 6.98Q69.67 7.66 69.67 10.87ZM66.17 2.30L66.17 2.30Q66.12 2.18 66.12 2.05Q66.12 1.92 66.12 1.80L66.12 1.80Q66.12 1.15 66.66 0.76Q67.20 0.36 67.99 0.36L67.99 0.36Q68.74 0.36 69.20 0.80Q69.67 1.25 69.67 2.02L69.67 2.02Q69.67 2.64 69.13 3.02Q68.59 3.41 67.75 3.41L67.75 3.41Q67.18 3.41 66.73 3.12Q66.29 2.83 66.17 2.30ZM73.15 13.42L73.15 13.42Q73.15 11.98 73.57 10.72Q73.99 9.46 74.78 8.52Q75.58 7.58 76.69 7.04Q77.81 6.50 79.20 6.50L79.20 6.50Q80.57 6.50 81.70 7.04Q82.82 7.58 83.63 8.52Q84.43 9.46 84.86 10.72Q85.30 11.98 85.30 13.42L85.30 13.42Q85.30 14.90 84.85 16.15Q84.41 17.40 83.60 18.32Q82.80 19.25 81.67 19.76Q80.54 20.28 79.20 20.28L79.20 20.28Q77.78 20.28 76.67 19.78Q75.55 19.27 74.77 18.36Q73.99 17.45 73.57 16.19Q73.15 14.93 73.15 13.42ZM76.66 9L76.66 9Q75.62 10.46 75.62 13.42L75.62 13.42Q75.62 14.88 75.90 15.98Q76.18 17.09 76.66 17.82Q77.14 18.55 77.78 18.91Q78.43 19.27 79.20 19.27L79.20 19.27Q79.94 19.27 80.62 18.91Q81.29 18.55 81.77 17.82Q82.25 17.09 82.54 15.98Q82.82 14.88 82.82 13.42L82.82 13.42Q82.82 11.95 82.54 10.84Q82.25 9.72 81.76 8.99Q81.26 8.26 80.60 7.88Q79.94 7.51 79.20 7.51L79.20 7.51Q77.71 7.51 76.66 9ZM97.30 12.77L95.16 18.74L97.10 18.98Q97.20 19.34 97.10 19.87L97.10 19.87Q95.59 19.80 94.56 19.80L94.56 19.80Q93.98 19.80 91.97 19.85L91.97 19.85Q91.82 19.42 91.97 18.98L91.97 18.98L93.55 18.70Q93.94 18.12 94.51 16.56L94.51 16.56L100.70 0L101.54 0L108.50 18.74L110.45 18.98Q110.54 19.34 110.45 19.87L110.45 19.87Q108.94 19.80 107.06 19.80L107.06 19.80Q105.67 19.80 103.66 19.85L103.66 19.85Q103.51 19.42 103.66 18.98L103.66 18.98L105.65 18.70L103.54 12.77L97.30 12.77ZM100.49 3.62L100.49 3.62L100.46 3.62Q100.18 4.75 99.53 6.58L99.53 6.58L97.73 11.57L103.10 11.57L101.35 6.58Q100.85 5.11 100.49 3.62ZM115.32 19.22L115.32 19.22Q116.62 19.22 117.24 18.62Q117.86 18.02 117.86 17.23L117.86 17.23Q117.86 16.78 117.72 16.39Q117.58 16.01 117.25 15.65Q116.93 15.29 116.40 14.94Q115.87 14.59 115.08 14.18L115.08 14.18Q114.10 13.68 113.39 13.22Q112.68 12.77 112.22 12.26Q111.77 11.76 111.54 11.18Q111.31 10.61 111.31 9.89L111.31 9.89Q111.31 9.02 111.62 8.39Q111.94 7.75 112.50 7.33Q113.06 6.91 113.83 6.71Q114.60 6.50 115.54 6.50L115.54 6.50Q117.41 6.50 119.18 7.42L119.18 7.42L119.18 10.49L118.06 10.49L117.53 7.90Q116.47 7.39 115.30 7.39L115.30 7.39Q113.33 7.39 113.33 9L113.33 9Q113.33 9.86 113.98 10.58Q114.62 11.30 116.06 12.02L116.06 12.02Q117.05 12.53 117.79 12.98Q118.54 13.44 119.03 13.94Q119.52 14.45 119.77 15.04Q120.02 15.62 120.02 16.37L120.02 16.37Q120.02 17.21 119.66 17.93Q119.30 18.65 118.66 19.16Q118.01 19.68 117.10 19.98Q116.18 20.28 115.08 20.28L115.08 20.28Q112.94 20.28 111.07 19.37L111.07 19.37L111.07 16.30L112.20 16.30L112.73 18.67Q113.95 19.22 115.32 19.22ZM132.10 13.03L132.10 13.03L124.56 13.03Q124.34 19.15 128.23 19.15L128.23 19.15Q129.89 19.15 131.62 17.69L131.62 17.69Q131.98 17.90 132.17 18.43L132.17 18.43Q130.51 20.28 127.97 20.28L127.97 20.28Q122.11 20.28 122.11 13.39L122.11 13.39Q122.11 10.13 123.84 8.32Q125.57 6.50 127.87 6.50L127.87 6.50Q130.39 6.50 131.50 8.26Q132.60 10.01 132.60 12.82L132.60 12.82Q132.36 13.01 132.10 13.03ZM127.82 7.46L127.82 7.46Q126.58 7.46 125.70 8.76Q124.82 10.06 124.63 12.07L124.63 12.07L127.61 12.07Q129.38 12.07 130.15 11.86L130.15 11.86Q130.15 9.89 129.55 8.68Q128.95 7.46 127.82 7.46ZM136.51 20.06L136.51 20.06Q136.73 20.16 136.87 20.47L136.87 20.47Q136.08 21.12 136.08 22.42L136.08 22.42Q136.08 23.57 137.14 24.26Q138.19 24.96 139.87 24.96L139.87 24.96Q141.60 24.96 142.75 24.32Q143.90 23.69 143.90 22.54L143.90 22.54Q143.90 21.29 143.45 20.70Q142.99 20.11 141.62 19.99L141.62 19.99L137.14 19.58Q136.39 19.49 135.90 18.80Q135.41 18.12 135.41 17.47L135.41 17.47L137.02 14.81Q135.91 14.18 135.35 13.15Q134.78 12.12 134.78 11.04L134.78 11.04Q134.78 9 136.30 7.75Q137.81 6.50 139.78 6.50L139.78 6.50Q141.67 6.50 143.11 7.51L143.11 7.51Q143.23 4.22 145.56 4.10L145.56 4.10Q146.18 4.25 146.18 5.14L146.18 5.14Q146.18 5.62 146.09 6.19L146.09 6.19Q145.15 6.26 144.55 6.80Q143.95 7.34 143.69 8.04L143.69 8.04Q144.89 9.24 144.89 11.04L144.89 11.04Q144.89 12.94 143.35 14.20Q141.82 15.46 139.78 15.46L139.78 15.46Q138.70 15.46 137.83 15.17L137.83 15.17L137.02 17.30L142.99 17.90Q144.38 18.07 145.12 18.92Q145.85 19.78 145.85 21.14L145.85 21.14Q145.85 23.54 144.12 24.83Q142.39 26.11 139.44 26.11L139.44 26.11Q136.99 26.11 135.62 25.22Q134.26 24.34 134.26 22.85L134.26 22.85Q134.26 21.84 134.90 21.06Q135.55 20.28 136.51 20.06ZM136.94 11.04L136.94 11.04Q136.94 12.43 137.72 13.42Q138.50 14.40 139.80 14.40L139.80 14.40Q141.07 14.40 141.89 13.43Q142.70 12.46 142.70 11.04L142.70 11.04Q142.70 9.50 141.90 8.48Q141.10 7.46 139.80 7.46L139.80 7.46Q138.58 7.46 137.76 8.50Q136.94 9.53 136.94 11.04ZM158.59 6.98L158.59 6.98L158.59 16.39Q158.59 18 158.66 18.65L158.66 18.65L160.56 18.89Q160.63 19.27 160.56 19.80L160.56 19.80Q158.81 19.87 156.91 20.14L156.91 20.14Q156.74 19.97 156.67 19.68L156.67 19.68L156.55 17.54Q155.54 18.84 154.48 19.56Q153.41 20.28 151.97 20.28L151.97 20.28Q150.50 20.28 149.51 19.54Q148.51 18.79 148.51 16.99L148.51 16.99L148.51 11.66Q148.51 8.93 148.44 8.16L148.44 8.16L146.54 7.92Q146.45 7.56 146.54 7.01L146.54 7.01Q148.20 6.89 150.67 6.50L150.67 6.50Q150.89 6.74 150.91 6.98L150.91 6.98Q150.79 7.61 150.79 15.79L150.79 15.79Q150.79 17.47 151.19 18.18Q151.58 18.89 152.66 18.89L152.66 18.89Q154.68 18.89 156.31 16.49L156.31 16.49L156.31 11.64Q156.31 8.93 156.24 8.16L156.24 8.16L154.34 7.92Q154.25 7.56 154.34 7.01L154.34 7.01Q155.78 6.91 158.35 6.50L158.35 6.50Q158.57 6.74 158.59 6.98ZM166.08 6.98L166.08 6.98L166.03 9.46Q166.63 8.35 167.70 7.43Q168.77 6.50 169.73 6.50L169.73 6.50Q170.47 6.50 171.05 6.67L171.05 6.67Q171.24 6.98 171.24 7.49L171.24 7.49Q171.24 8.28 170.90 9.07L170.90 9.07Q170.04 8.83 169.25 8.83L169.25 8.83Q167.28 8.83 166.01 10.75L166.01 10.75L165.96 14.95L165.96 18.58L168.62 18.94Q168.72 19.32 168.62 19.90L168.62 19.90Q167.11 19.82 165.17 19.82L165.17 19.82Q163.70 19.82 161.69 19.87L161.69 19.87Q161.54 19.42 161.69 18.94L161.69 18.94L163.58 18.67Q163.68 17.35 163.68 15.62L163.68 15.62L163.68 9.05Q163.68 8.57 163.61 8.16L163.61 8.16L161.71 7.92Q161.62 7.56 161.71 7.01L161.71 7.01Q163.37 6.89 165.84 6.50L165.84 6.50Q166.06 6.74 166.08 6.98ZM174.65 16.61L174.65 16.61Q174.65 17.86 175.10 18.37Q175.56 18.89 176.54 18.89L176.54 18.89Q177.26 18.89 178.14 18.44Q179.02 18 179.76 17.16L179.76 17.16L179.76 13.42Q177.29 13.56 175.97 14.29Q174.65 15.02 174.65 16.61ZM179.76 12.55L179.76 12.55L179.76 11.33Q179.76 9.29 179.29 8.36Q178.82 7.44 177.74 7.44L177.74 7.44Q176.64 7.44 175.97 8.15Q175.30 8.86 175.06 10.56L175.06 10.56Q174.29 10.73 173.93 10.73L173.93 10.73Q172.99 10.73 172.82 10.06L172.82 10.06Q172.82 8.42 174.24 7.46Q175.66 6.50 177.77 6.50L177.77 6.50Q180.10 6.50 181.07 7.45Q182.04 8.40 182.04 10.85L182.04 10.85L182.04 17.62Q182.04 18.22 182.11 18.65L182.11 18.65L184.01 18.89Q184.10 19.25 184.01 19.80L184.01 19.80Q182.30 19.87 180.38 20.14L180.38 20.14Q180.19 19.94 180.14 19.66L180.14 19.66L180.02 18Q178.03 20.28 175.58 20.28L175.58 20.28Q174.07 20.28 173.22 19.42Q172.37 18.55 172.37 17.09L172.37 17.09Q172.37 14.88 174.37 13.75Q176.38 12.62 179.76 12.55ZM196.85 4.58L196.85 16.39Q196.85 18 196.92 18.65L196.92 18.65L198.82 18.89Q198.89 19.27 198.82 19.80L198.82 19.80Q197.06 19.87 195.17 20.14L195.17 20.14Q195 19.97 194.93 19.68L194.93 19.68L194.81 18.14Q193.97 19.13 192.72 19.72Q191.47 20.30 190.10 20.30L190.10 20.30Q188.02 20.30 186.65 18.56Q185.28 16.82 185.28 13.92L185.28 13.92Q185.28 10.56 187.07 8.53Q188.86 6.50 191.35 6.50L191.35 6.50Q193.32 6.50 194.57 7.44L194.57 7.44L194.57 4.22Q194.57 2.64 194.50 1.87L194.50 1.87L192.60 1.63Q192.50 1.27 192.60 0.72L192.60 0.72Q194.26 0.60 196.73 0.22L196.73 0.22Q196.94 0.46 196.97 0.70L196.97 0.70Q196.85 1.32 196.85 4.58L196.85 4.58ZM191.16 7.80L191.16 7.80Q189.60 7.80 188.66 9.44Q187.73 11.09 187.73 13.99L187.73 13.99Q187.73 16.37 188.60 17.62Q189.48 18.86 190.92 18.86L190.92 18.86Q191.78 18.86 192.82 18.32Q193.85 17.78 194.57 16.82L194.57 16.82L194.57 9.14Q193.39 7.80 191.16 7.80ZM200.26 13.42L200.26 13.42Q200.26 11.98 200.68 10.72Q201.10 9.46 201.89 8.52Q202.68 7.58 203.80 7.04Q204.91 6.50 206.30 6.50L206.30 6.50Q207.67 6.50 208.80 7.04Q209.93 7.58 210.73 8.52Q211.54 9.46 211.97 10.72Q212.40 11.98 212.40 13.42L212.40 13.42Q212.40 14.90 211.96 16.15Q211.51 17.40 210.71 18.32Q209.90 19.25 208.78 19.76Q207.65 20.28 206.30 20.28L206.30 20.28Q204.89 20.28 203.77 19.78Q202.66 19.27 201.88 18.36Q201.10 17.45 200.68 16.19Q200.26 14.93 200.26 13.42ZM203.76 9L203.76 9Q202.73 10.46 202.73 13.42L202.73 13.42Q202.73 14.88 203.00 15.98Q203.28 17.09 203.76 17.82Q204.24 18.55 204.89 18.91Q205.54 19.27 206.30 19.27L206.30 19.27Q207.05 19.27 207.72 18.91Q208.39 18.55 208.87 17.82Q209.35 17.09 209.64 15.98Q209.93 14.88 209.93 13.42L209.93 13.42Q209.93 11.95 209.64 10.84Q209.35 9.72 208.86 8.99Q208.37 8.26 207.71 7.88Q207.05 7.51 206.30 7.51L206.30 7.51Q204.82 7.51 203.76 9ZM218.54 6.98L218.54 6.98L218.50 9.46Q219.10 8.35 220.16 7.43Q221.23 6.50 222.19 6.50L222.19 6.50Q222.94 6.50 223.51 6.67L223.51 6.67Q223.70 6.98 223.70 7.49L223.70 7.49Q223.70 8.28 223.37 9.07L223.37 9.07Q222.50 8.83 221.71 8.83L221.71 8.83Q219.74 8.83 218.47 10.75L218.47 10.75L218.42 14.95L218.42 18.58L221.09 18.94Q221.18 19.32 221.09 19.90L221.09 19.90Q219.58 19.82 217.63 19.82L217.63 19.82Q216.17 19.82 214.15 19.87L214.15 19.87Q214.01 19.42 214.15 18.94L214.15 18.94L216.05 18.67Q216.14 17.35 216.14 15.62L216.14 15.62L216.14 9.05Q216.14 8.57 216.07 8.16L216.07 8.16L214.18 7.92Q214.08 7.56 214.18 7.01L214.18 7.01Q215.83 6.89 218.30 6.50L218.30 6.50Q218.52 6.74 218.54 6.98ZM240.62 0.22L240.62 0.22Q242.98 0.22 244.85 1.06Q246.72 1.90 247.87 3.30Q249.02 4.70 249.64 6.42Q250.25 8.14 250.25 10.01L250.25 10.01Q250.25 14.33 247.54 17.30Q244.82 20.28 240.62 20.28L240.62 20.28Q238.30 20.28 236.42 19.44Q234.55 18.60 233.40 17.20Q232.25 15.79 231.64 14.09Q231.02 12.38 231.02 10.54L231.02 10.54Q231.02 7.78 232.24 5.42Q233.45 3.07 235.67 1.64Q237.89 0.22 240.62 0.22ZM240.60 18.96L240.60 18.96Q242.86 18.96 244.43 17.65Q246.00 16.34 246.68 14.35Q247.37 12.36 247.37 9.91L247.37 9.91Q247.37 7.58 246.68 5.75Q246.00 3.91 244.44 2.72Q242.88 1.54 240.60 1.54L240.60 1.54Q237.31 1.54 235.61 3.94Q233.90 6.34 233.90 9.94L233.90 9.94Q233.90 12.41 234.58 14.39Q235.25 16.37 236.81 17.66Q238.37 18.96 240.60 18.96ZM254.40 20.06L254.40 20.06Q254.62 20.16 254.76 20.47L254.76 20.47Q253.97 21.12 253.97 22.42L253.97 22.42Q253.97 23.57 255.02 24.26Q256.08 24.96 257.76 24.96L257.76 24.96Q259.49 24.96 260.64 24.32Q261.79 23.69 261.79 22.54L261.79 22.54Q261.79 21.29 261.34 20.70Q260.88 20.11 259.51 19.99L259.51 19.99L255.02 19.58Q254.28 19.49 253.79 18.80Q253.30 18.12 253.30 17.47L253.30 17.47L254.90 14.81Q253.80 14.18 253.24 13.15Q252.67 12.12 252.67 11.04L252.67 11.04Q252.67 9 254.18 7.75Q255.70 6.50 257.66 6.50L257.66 6.50Q259.56 6.50 261 7.51L261 7.51Q261.12 4.22 263.45 4.10L263.45 4.10Q264.07 4.25 264.07 5.14L264.07 5.14Q264.07 5.62 263.98 6.19L263.98 6.19Q263.04 6.26 262.44 6.80Q261.84 7.34 261.58 8.04L261.58 8.04Q262.78 9.24 262.78 11.04L262.78 11.04Q262.78 12.94 261.24 14.20Q259.70 15.46 257.66 15.46L257.66 15.46Q256.58 15.46 255.72 15.17L255.72 15.17L254.90 17.30L260.88 17.90Q262.27 18.07 263.00 18.92Q263.74 19.78 263.74 21.14L263.74 21.14Q263.74 23.54 262.01 24.83Q260.28 26.11 257.33 26.11L257.33 26.11Q254.88 26.11 253.51 25.22Q252.14 24.34 252.14 22.85L252.14 22.85Q252.14 21.84 252.79 21.06Q253.44 20.28 254.40 20.06ZM254.83 11.04L254.83 11.04Q254.83 12.43 255.61 13.42Q256.39 14.40 257.69 14.40L257.69 14.40Q258.96 14.40 259.78 13.43Q260.59 12.46 260.59 11.04L260.59 11.04Q260.59 9.50 259.79 8.48Q258.98 7.46 257.69 7.46L257.69 7.46Q256.46 7.46 255.65 8.50Q254.83 9.53 254.83 11.04ZM266.98 20.06L266.98 20.06Q267.19 20.16 267.34 20.47L267.34 20.47Q266.54 21.12 266.54 22.42L266.54 22.42Q266.54 23.57 267.60 24.26Q268.66 24.96 270.34 24.96L270.34 24.96Q272.06 24.96 273.22 24.32Q274.37 23.69 274.37 22.54L274.37 22.54Q274.37 21.29 273.91 20.70Q273.46 20.11 272.09 19.99L272.09 19.99L267.60 19.58Q266.86 19.49 266.36 18.80Q265.87 18.12 265.87 17.47L265.87 17.47L267.48 14.81Q266.38 14.18 265.81 13.15Q265.25 12.12 265.25 11.04L265.25 11.04Q265.25 9 266.76 7.75Q268.27 6.50 270.24 6.50L270.24 6.50Q272.14 6.50 273.58 7.51L273.58 7.51Q273.70 4.22 276.02 4.10L276.02 4.10Q276.65 4.25 276.65 5.14L276.65 5.14Q276.65 5.62 276.55 6.19L276.55 6.19Q275.62 6.26 275.02 6.80Q274.42 7.34 274.15 8.04L274.15 8.04Q275.35 9.24 275.35 11.04L275.35 11.04Q275.35 12.94 273.82 14.20Q272.28 15.46 270.24 15.46L270.24 15.46Q269.16 15.46 268.30 15.17L268.30 15.17L267.48 17.30L273.46 17.90Q274.85 18.07 275.58 18.92Q276.31 19.78 276.31 21.14L276.31 21.14Q276.31 23.54 274.58 24.83Q272.86 26.11 269.90 26.11L269.90 26.11Q267.46 26.11 266.09 25.22Q264.72 24.34 264.72 22.85L264.72 22.85Q264.72 21.84 265.37 21.06Q266.02 20.28 266.98 20.06ZM267.41 11.04L267.41 11.04Q267.41 12.43 268.19 13.42Q268.97 14.40 270.26 14.40L270.26 14.40Q271.54 14.40 272.35 13.43Q273.17 12.46 273.17 11.04L273.17 11.04Q273.17 9.50 272.36 8.48Q271.56 7.46 270.26 7.46L270.26 7.46Q269.04 7.46 268.22 8.50Q267.41 9.53 267.41 11.04ZM287.74 13.03L287.74 13.03L280.20 13.03Q279.98 19.15 283.87 19.15L283.87 19.15Q285.53 19.15 287.26 17.69L287.26 17.69Q287.62 17.90 287.81 18.43L287.81 18.43Q286.15 20.28 283.61 20.28L283.61 20.28Q277.75 20.28 277.75 13.39L277.75 13.39Q277.75 10.13 279.48 8.32Q281.21 6.50 283.51 6.50L283.51 6.50Q286.03 6.50 287.14 8.26Q288.24 10.01 288.24 12.82L288.24 12.82Q288 13.01 287.74 13.03ZM283.46 7.46L283.46 7.46Q282.22 7.46 281.34 8.76Q280.46 10.06 280.27 12.07L280.27 12.07L283.25 12.07Q285.02 12.07 285.79 11.86L285.79 11.86Q285.79 9.89 285.19 8.68Q284.59 7.46 283.46 7.46ZM294.38 6.98L294.38 6.98L294.34 9.46Q294.94 8.35 296.00 7.43Q297.07 6.50 298.03 6.50L298.03 6.50Q298.78 6.50 299.35 6.67L299.35 6.67Q299.54 6.98 299.54 7.49L299.54 7.49Q299.54 8.28 299.21 9.07L299.21 9.07Q298.34 8.83 297.55 8.83L297.55 8.83Q295.58 8.83 294.31 10.75L294.31 10.75L294.26 14.95L294.26 18.58L296.93 18.94Q297.02 19.32 296.93 19.90L296.93 19.90Q295.42 19.82 293.47 19.82L293.47 19.82Q292.01 19.82 289.99 19.87L289.99 19.87Q289.85 19.42 289.99 18.94L289.99 18.94L291.89 18.67Q291.98 17.35 291.98 15.62L291.98 15.62L291.98 9.05Q291.98 8.57 291.91 8.16L291.91 8.16L290.02 7.92Q289.92 7.56 290.02 7.01L290.02 7.01Q291.67 6.89 294.14 6.50L294.14 6.50Q294.36 6.74 294.38 6.98ZM300.65 13.42L300.65 13.42Q300.65 11.98 301.07 10.72Q301.49 9.46 302.28 8.52Q303.07 7.58 304.19 7.04Q305.30 6.50 306.70 6.50L306.70 6.50Q308.06 6.50 309.19 7.04Q310.32 7.58 311.12 8.52Q311.93 9.46 312.36 10.72Q312.79 11.98 312.79 13.42L312.79 13.42Q312.79 14.90 312.35 16.15Q311.90 17.40 311.10 18.32Q310.30 19.25 309.17 19.76Q308.04 20.28 306.70 20.28L306.70 20.28Q305.28 20.28 304.16 19.78Q303.05 19.27 302.27 18.36Q301.49 17.45 301.07 16.19Q300.65 14.93 300.65 13.42ZM304.15 9L304.15 9Q303.12 10.46 303.12 13.42L303.12 13.42Q303.12 14.88 303.40 15.98Q303.67 17.09 304.15 17.82Q304.63 18.55 305.28 18.91Q305.93 19.27 306.70 19.27L306.70 19.27Q307.44 19.27 308.11 18.91Q308.78 18.55 309.26 17.82Q309.74 17.09 310.03 15.98Q310.32 14.88 310.32 13.42L310.32 13.42Q310.32 11.95 310.03 10.84Q309.74 9.72 309.25 8.99Q308.76 8.26 308.10 7.88Q307.44 7.51 306.70 7.51L306.70 7.51Q305.21 7.51 304.15 9Z" transform="translate(0, 1.444)"></path><line x1="321.72" y1="2%" x2="321.72" y2="98%" stroke="#0466b2" stroke-linecap="round"></line><g fill="#51be95" color="#51be95" transform="translate(330.72 0) scale(1.8125)"><svg width="16.0" height="16.0" x="0.0" y="0.0" viewBox="0 0 16 16"><g><line style="" x1="6.52" y1="10.5" x2="6.5" y2="10.5" fill="none" stroke="currentColor" stroke-linecap="round" stroke-linejoin="round" stroke-miterlimit="10"></line><path style="" d="M9.5,7.5l-2-2H6l-1,1   l-1-1H3C2.72,5.5,2.5,5.72,2.5,6v3c0,0.28,0.22,0.5,0.5,0.5h0.5v4c0,0.55,0.45,1,1,1h1c0.55,0,1-0.45,1-1v-3" fill="none" stroke="currentColor" stroke-linecap="round" stroke-linejoin="round" stroke-miterlimit="10"></path><circle style="" cx="5" cy="2.5" r="1" fill="none" stroke="currentColor" stroke-linecap="round" stroke-linejoin="round" stroke-miterlimit="10"></circle><path style="" d="M12.5,7.5V10   c0,4-3,4.5-3,4.5s-3-0.5-3-4.5V7.5H12.5z" fill="none" stroke="currentColor" stroke-linecap="round" stroke-linejoin="round" stroke-miterlimit="10"></path></g></svg></g></svg>